#!OML:ASF F:\VICON\USERDATA\INSTALL\rory3\rory3.ASF
:FULLY-SPECIFIED
:DEGREES
37
root -0.01237249489622294 18.392305611355305 17.677370509162486 4.580219872934916 -1.8632032791281832 0.8521186142166344
lfemur 17.496948307746457 -6.49748063867942 -28.214439541292126
ltibia 43.13351257121148
lfoot 22.77629630281469 -17.07014688203892
ltoes -9.304402128291528
rfemur -40.33307950757232 -0.14347335625280055 25.800872893084602
rtibia 31.352118712039456
rfoot 6.709416937270242 -2.1499898500794394
rtoes -12.804118810148637
lowerback 14.38839777292558 -1.8992294948402368 -2.146498813723552
upperback -1.330415337723976 -2.7822001618155223 1.9889268296617482
thorax -9.19334050721454 -1.1172810647496871 4.77680605791031
lowerneck -21.240295883284922 -2.2991212643517853 -2.3231827341983697
upperneck 14.014752831145591 -2.8211826987612154 2.3647899104121377
head 7.804884948784105 -1.2163189020666398 0.7651056192971799
lclavicle -6.020830118292231e-16 2.6003817774680724e-15
lhumerus -34.19539693247198 -19.8426079367814 94.17575445190054
lradius 115.39587508125184
lwrist 34.47004796884906
lhand -24.49806720902829 1.0587352341379455
lfingers 7.12502
lthumb 1.9963829997997422 31.030359979063558
rclavicle -6.020830118292231e-16 2.6003817774680724e-15
rhumerus -65.9112849670049 -0.9364571924966665 -93.84689525890079
rradius 112.81778410398984
rwrist -7.7929770259261275
rhand -15.598712885072672 40.669641470762784
rfingers 7.12502
rthumb 10.586126790672791 10.732418369990683
38
root -0.0017536603038310616 18.244368101532345 18.171137137678308 3.889832836724203 -2.4559324829674702 0.6613688544017853
lfemur 15.061846614122812 -5.773603385609409 -27.72650328974982
ltibia 48.77399154170337
lfoot 21.85830986815589 -17.25783059818442
ltoes -6.582444204454022
rfemur -39.857200913018616 -0.6189248384639574 26.306552079345728
rtibia 32.59424339007517
rfoot 6.071500731946275 -0.07987028611819369
rtoes -9.59220197000598
lowerback 14.7916181900496 -1.71388116565244 -2.0319799034104395
upperback -1.1340251496128078 -2.5183394740076297 1.9283568087774707
thorax -9.345421103992058 -1.000920707157897 4.427277940078601
lowerneck -20.98455117733713 -2.3514380041993506 -2.4447432285090245
upperneck 13.800720981013678 -2.8529467371633035 2.2104228989638037
head 7.708707161198722 -1.2517786803805766 0.7257443619690559
lclavicle -1.4872584776894496e-15 1.958034780373353e-15
lhumerus -35.704526476297 -19.70808779582998 94.68824787568104
lradius 112.16168891625438
lwrist 34.31776709597138
lhand -25.162272432059392 -0.05095009617930679
lfingers 7.12502
lthumb 1.3549273812837306 29.921839233347058
rclavicle -1.4872584776894496e-15 1.958034780373353e-15
rhumerus -65.2863303999578 -1.4749225865714646 -93.81881445743613
rradius 111.8196382896416
rwrist -7.651964658433307
rhand -15.938378564749517 40.62905648071512
rfingers 7.12502
rthumb 10.258449966332806 10.658300287329334
39
root 0.009234488541704472 18.08876272989245 19.626197341922676 3.2615044308836616 -2.9889856638114893 0.5346651617516844
lfemur 13.627088680473372 -4.192359621364561 -26.335857177206314
ltibia 57.167456981699495
lfoot 21.28437356173491 -16.157250627704453
ltoes -4.035317432426992
rfemur -37.941179552942444 -0.51098252333837 27.259242489145674
rtibia 37.036701725666546
rfoot 4.813416076669542 2.1697573136427524
rtoes -1.519661953304801
lowerback 15.324375479924782 -1.3317548102876495 -1.6540090523961581
upperback -0.8818304143923451 -1.9517933002487164 2.0229148532738033
thorax -9.459990210280921 -0.7528971782765496 4.3163764640401245
lowerneck -20.596519653932244 -2.299209764615388 -2.495728590680716
upperneck 13.775573516898383 -2.7404988089328155 2.099646487637603
head 7.65676418657791 -1.2231493697399671 0.6978156186582897
lclavicle -5.629748504755759e-16 2.628976504867773e-15
lhumerus -36.49240339088274 -18.835325875176416 95.4236636743683
lradius 109.2947847449295
lwrist 34.54872578981455
lhand -25.75893940070726 -0.7443425614777166
lfingers 7.12502
lthumb 0.7787183347493369 29.226569677136148
rclavicle -5.629748504755759e-16 2.628976504867773e-15
rhumerus -63.580065368527656 -1.0207596929460543 -93.81850819531344
rradius 110.96589084234455
rwrist -7.344880481487332
rhand -16.177789943266546 40.644348073073495
rfingers 7.12502
rthumb 10.027597149478941 10.665699152196689
40
root 0.006038928807761107 17.89058541006753 19.96949693967664 2.7040826024307907 -3.5820919254540082 0.07615804331050091
lfemur 9.994073006540082 -2.3828816264542185 -24.58871589487481
ltibia 64.42703635525021
lfoot 19.306944247747268 -14.669671249500132
ltoes -2.7497110954915494
rfemur -36.630642945244105 -0.06812025935284871 28.11665194971263
rtibia 41.13870199822962
rfoot 2.082292557455015 2.9096408672274725
rtoes 6.08593785130526
lowerback 15.651581557722956 -0.961176808768859 -1.2666615843509648
upperback -0.6943815159555815 -1.3777258204920013 2.1011001719146023
thorax -9.546969761305133 -0.5026180723524899 3.9413528085185474
lowerneck -20.481506371108765 -2.345326672103743 -2.4742873517927584
upperneck 13.835436100064111 -2.7847268631859095 1.9071129726181404
head 7.651430156711456 -1.2640746439242456 0.6129573750672467
lclavicle -9.395025907467573e-16 2.3565636907076006e-15
lhumerus -38.36881077184596 -18.050961540209137 96.04274862522288
lradius 106.02895545389796
lwrist 34.209887034545304
lhand -26.048430441742575 -0.9295359069711211
lfingers 7.12502
lthumb 0.4991242900678692 29.044385967313218
rclavicle -9.395025907467573e-16 2.3565636907076006e-15
rhumerus -61.753948152674916 -0.36455891169970656 -94.14537094759642
rradius 109.79406152370917
rwrist -7.544035593806337
rhand -16.430325128938378 40.51639310901991
rfingers 7.12502
rthumb 9.784022061008939 10.592055971782576
